<svg xmlns="http://www.w3.org/2000/svg" xmlns:xlink="http://www.w3.org/1999/xlink" width="128" height="128"><defs><linearGradient id="c"><stop offset=".1" style="stop-color:#c0bfbc;stop-opacity:1"/><stop offset=".495" style="stop-color:#e6e5e4;stop-opacity:1"/><stop offset=".9" style="stop-color:#c0bfbc;stop-opacity:1"/></linearGradient><linearGradient id="b"><stop offset=".104" style="stop-color:#c01c28;stop-opacity:1"/><stop offset=".501" style="stop-color:#ed333b;stop-opacity:1"/><stop offset=".899" style="stop-color:#c01c28;stop-opacity:1"/></linearGradient><linearGradient id="a"><stop offset=".097" style="stop-color:#c01c28;stop-opacity:1"/><stop offset=".5" style="stop-color:#ed333b;stop-opacity:1"/><stop offset=".9" style="stop-color:#c01c28;stop-opacity:1"/></linearGradient><linearGradient xlink:href="#a" id="d" x1="8" x2="120" y1="114" y2="114" gradientUnits="userSpaceOnUse"/><linearGradient xlink:href="#b" id="f" x1="40" x2="88" y1="14" y2="14" gradientTransform="matrix(1 0 0 .5 0 9)" gradientUnits="userSpaceOnUse"/><linearGradient xlink:href="#c" id="e" x1="8" x2="120" y1="64" y2="64" gradientUnits="userSpaceOnUse"/></defs><path d="M8 110a8 8 0 0 0 8 8h96a8 8 0 0 0 8-8z" style="fill:url(#d);fill-opacity:1"/><g style="fill-opacity:1;fill:url(#e)"><path d="M40 18v46.285L36 70 8 110h112L92 70l-4-5.715V18z" style="fill:url(#e);fill-opacity:1;stroke-width:.954886"/></g><path d="M44 10c-2.216 0-4 1.784-4 4v4h48v-4c0-2.216-1.784-4-4-4z" style="fill:url(#f);fill-opacity:1;stroke-width:.364016"/></svg>